<?xml version="1.0" encoding="iso-8859-1"?>
<!-- Generator: Adobe Illustrator 19.0.0, SVG Export Plug-In . SVG Version: 6.00 Build 0)  -->
<svg xmlns="http://www.w3.org/2000/svg" xmlns:xlink="http://www.w3.org/1999/xlink" version="1.1" id="Capa_1" x="0px" y="0px" viewBox="0 0 502.188 502.188" style="enable-background:new 0 0 502.188 502.188;" xml:space="preserve" width="512" height="512">
<g>
	<polygon style="fill:#FABA45;" points="265.082,207.882 224.094,248.869 187.094,180.869 134.328,194.936 196.637,63.481  "/>
	<path style="fill:#E95B2D;" d="M185.43,453.321h195.99l-38.961-82.196h-50.566c-9.757,0-17.667-7.91-17.667-17.667   c0-9.757,7.91-17.666,17.667-17.666h33.819L196.637,63.481l68.445,144.4l-40.988,40.988l-37-68l-52.767,14.067l62.309-131.455   L98.26,271.029h141.822c13.807,0,25,11.193,25,25s-11.193,25-25,25H74.561L11.855,453.321h153.573"/>
	<polygon style="fill:#FABA45;" points="297.513,200.451 337.094,258.401 379.309,219.09 333.994,123.487  "/>
	<path style="fill:#E95B2D;" d="M379.309,219.09l-42.215,39.311l-39.582-57.95l-17.977,37.926l46.175,97.415h65.81   c9.757,0,17.667,7.91,17.667,17.666c0,9.757-7.91,17.667-17.667,17.667h-49.063l38.961,82.196h108.914L379.309,219.09z"/>
	<path style="fill:#FABA45;" d="M265.082,296.029c0,13.807-11.193,25-25,25H56.64c-13.807,0-25-11.193-25-25l0,0   c0-13.807,11.193-25,25-25h183.442C253.889,271.029,265.082,282.221,265.082,296.029L265.082,296.029z"/>
	<path style="fill:#E95B2D;" d="M317.65,157.967l16.344-34.48l11.621,24.516c13.912-9.9,22.995-26.143,22.995-44.518   c0-30.165-24.453-54.618-54.618-54.618c-30.165,0-54.618,24.453-54.618,54.618c0,30.165,24.453,54.618,54.618,54.618   C315.223,158.103,316.439,158.048,317.65,157.967z"/>
	<path style="fill:#FABA45;" d="M409.188,353.459c0,9.757-7.91,17.667-17.667,17.667h-99.629c-9.757,0-17.667-7.91-17.667-17.667   l0,0c0-9.757,7.91-17.666,17.667-17.666h99.629C401.278,335.792,409.188,343.702,409.188,353.459L409.188,353.459z"/>
	<path style="fill:#0F2639;" d="M381.697,206.617L381.697,206.617l-26.758-56.452c13.354-11.733,21.17-28.755,21.17-46.681   c0-34.252-27.866-62.118-62.118-62.118c-34.252,0-62.118,27.866-62.118,62.118c0,31.537,23.629,57.641,54.11,61.584l-17.092,36.059   l0,0l-9.355,19.738L203.414,60.269l0,0l-6.777-14.298l-6.777,14.298l0,0l-96.344,203.26H56.64c-17.92,0-32.5,14.58-32.5,32.5   c0,17.92,14.58,32.5,32.5,32.5h6.066L0,460.821h165.428v-15H23.71l7.111-15.003h104.603v-15H37.931l41.375-87.29h160.776   c17.92,0,32.5-14.58,32.5-32.5c0-17.92-14.58-32.5-32.5-32.5H110.115l29.501-62.24l43.709-11.652l38.977,71.632l40.56-40.56   l8.375,17.669l0,0l42.62,89.915h-21.963c-13.877,0-25.167,11.289-25.167,25.166c0,13.877,11.29,25.167,25.167,25.167h45.821   l15.926,33.598l15.925,33.598H185.43v15h191.245h16.6h108.914L381.697,206.617z M240.082,278.529c9.649,0,17.5,7.851,17.5,17.5   c0,9.649-7.851,17.5-17.5,17.5H69.816H56.64c-9.649,0-17.5-7.851-17.5-17.5c0-9.649,7.851-17.5,17.5-17.5h29.765H240.082z    M225.886,236.471l-35.023-64.368l-42.824,11.416l48.598-102.527l59.404,125.325L225.886,236.471z M338.367,246.967l-32.234-47.192   l27.86-58.778l8.677,18.306l0,0l27.51,58.039L338.367,246.967z M312.847,150.589c-25.455-0.609-45.973-21.505-45.973-47.104   c0-25.981,21.137-47.118,47.118-47.118c25.981,0,47.118,21.137,47.118,47.118c0,12.131-4.72,23.722-12.938,32.403l-14.178-29.911   L312.847,150.589z M291.892,363.625c-5.606,0-10.167-4.561-10.167-10.167c0-5.606,4.561-10.166,10.167-10.166h29.073h16.601h53.955   c5.606,0,10.167,4.56,10.167,10.166c0,5.606-4.561,10.167-10.167,10.167h-44.317h-16.601H291.892z M386.164,445.821l-3.142-6.629   l-28.708-60.567h37.207c13.877,0,25.167-11.29,25.167-25.167c0-13.877-11.29-25.166-25.167-25.166h-61.065l-42.62-89.916   l10.855-22.901l37.13,54.36l41.1-38.272l101.558,214.259H386.164z"/>
</g>















</svg>
