<?xml version="1.0" encoding="iso-8859-1"?>
<!-- Generator: Adobe Illustrator 16.0.0, SVG Export Plug-In . SVG Version: 6.00 Build 0)  -->
<!DOCTYPE svg PUBLIC "-//W3C//DTD SVG 1.1//EN" "http://www.w3.org/Graphics/SVG/1.1/DTD/svg11.dtd">
<svg version="1.1" id="Capa_1" xmlns="http://www.w3.org/2000/svg" xmlns:xlink="http://www.w3.org/1999/xlink" x="0px" y="0px"
	 width="181.604px" height="181.604px" viewBox="0 0 181.604 181.604" style="enable-background:new 0 0 181.604 181.604;"
	 xml:space="preserve">
<g>
	<path d="M170.817,100.681c-9.676-22.399-32.692-71.395-63.934-60.767c-0.025-0.033-0.028-0.068-0.055-0.101
		C72.053-4.406-0.086,70.396,36.376,94.332c-32.232,14.066-54.362,75.932-11.707,85.636c18.272,4.157,49.519,1.412,56.085-20.264
		c0.013-0.039,0.019-0.083,0.03-0.122c17.544,16.952,55.186,14.915,75.72,9.282C190.59,159.518,181.55,125.527,170.817,100.681z
		 M147.015,74.167c-5.311,4.468-12.097,4.136-15.871-3.441c-1.546-3.104-7.009-1.731-6.674,1.808
		c1.646,5.813-2.003,7.313-10.949,4.5c-1.907-3.066-6.323-1.677-6.543,1.772c-0.649,10.17-14.456,12.302-14.728,1.254
		c-0.023-0.968-0.905-1.698-1.794-1.816c3.388-9.079,6.779-17.945,13.345-25.609C117.76,36.338,134.74,54.875,147.015,74.167z
		 M51.533,98.556c0.116,0.086,0.213,0.179,0.342,0.259c7.508,4.667,12.804,12.336,16.285,20.978
		c-0.427,0.136-0.853,0.356-1.262,0.724c-6.338,5.69-11.514,1.9-15.109-4.439c-1.559-2.752-6.045-1.577-5.972,1.617
		c0.014,0.587,0.01,9.609-2.8,7.409c-2.387-1.868-2.056-6.066-1.975-8.664c0.115-3.687-5.802-4.584-6.502-0.88
		c-0.763,4.032-2.205,9.388-7.152,9.798c-3.561,0.295-4.3-3.475-4.306-6.754C30.063,108.742,39.573,101.101,51.533,98.556z
		 M34.225,171.971c-20.798-0.508-27.324-13.223-21.643-31.698c1.584-5.15,3.704-10.22,6.317-14.979
		c0.924,2.684,2.904,4.918,6.398,6.158c4.662,1.654,8.479-0.763,11.21-4.349c1.322,2.498,3.361,4.438,6.556,4.904
		c4.653,0.68,7.055-2.515,8.216-6.384c5.517,5.008,12.779,6.562,19.011,0.311c2.267,7.69,3.271,15.752,3.188,22.939
		C73.239,169.968,50.45,172.368,34.225,171.971z M70.393,103.917c-3.893-5.356-8.636-9.748-14.19-12.505
		c-1.621-0.806-3.148-0.585-4.31,0.161c-3.847-0.358-7.667,0.112-11.393,1.226c-9.076-16.292-3.714-30.917,9.062-43.574
		c14.586-14.449,34.033-17.891,50.201-5.608c-9.991,7.479-15.405,22.315-19.273,33.098C77.643,84.648,71.869,94.524,70.393,103.917z
		 M147.348,161.948c-19.094,4-49.654,2.872-63.997-12.1c-0.231-0.241-0.479-0.432-0.733-0.597
		c0.822-10.268-0.934-21.812-5.039-32.103c1.369-0.871,2.297-2.501,1.936-4.669c-1.309-7.831,4.949-18.938,7.796-26.003
		c0.203-0.504,0.39-1.008,0.588-1.513c1.363,9.442,18.164,11.687,24.11,0.821c7.029,5.589,15.792,3.152,18.719-4.997
		c6.403,4.501,15.565,5.685,20.744,0.729c4.619,7.99,8.231,15.345,10.237,19.492c5.704,11.789,10.413,24.623,11.146,37.792
		C173.706,154.133,159.824,159.336,147.348,161.948z"/>
	<path d="M25.045,82.933c-1.229-2.098-4.232-3.054-6.35-1.665c-3.186,2.088-6.191,4.568-8.645,7.49
		c-3.077,3.666,1.51,8.124,5.185,5.185c2.416-1.931,5.309-3.449,8.146-4.659C25.709,88.29,26.202,84.906,25.045,82.933z"/>
	<g>
		<path d="M11.827,65.696c-2.232-0.267-5.31-0.906-7.112,0.756c-1.251,1.154-0.901,3.097,0.318,4.046
			c0.064,0.024,0.269,0.138,0.514,0.272c-0.072-0.02-0.145-0.039-0.217-0.059c0.18,0.103,0.369,0.195,0.576,0.253
			c-0.231-0.065-0.343-0.103-0.454-0.14c0.117,0.052,0.26,0.125,0.402,0.223c0.277,0.191,0.58,0.347,0.875,0.509
			c0.449,0.246,0.897,0.281,1.294,0.176c1.07,0.379,2.123,0.799,3.203,1.152c1.354,0.442,2.637,0.788,4.069,0.89
			c2.105,0.15,4.333-1.565,4.333-3.75C19.628,65.956,14.671,66.038,11.827,65.696z"/>
		<path d="M5.262,70.692c0.023,0.006,0.046,0.013,0.069,0.019c-0.107-0.062-0.201-0.138-0.297-0.213
			C4.977,70.477,5.025,70.522,5.262,70.692z"/>
		<path d="M5.452,70.824C5.205,70.714,5.133,70.719,5.452,70.824L5.452,70.824z"/>
	</g>
	<path d="M29.134,42.062c-0.553-0.41-1.188-0.62-1.823-0.876c0.653,0.264-0.749-0.329-0.686-0.302
		c-1.023-0.451-2.083-0.974-3.201-1.141c-1.28-0.191-2.446-0.063-3.411,0.902c-1.074,1.074-1.402,2.936-0.548,4.248
		c1.423,2.187,3.933,4.166,6.333,5.082c1.791,0.684,3.979-0.436,4.889-1.99C31.977,45.782,31.026,43.463,29.134,42.062z"/>
	<g>
		<path d="M41.847,33.885c-0.004-0.002-0.007-0.001-0.012-0.003C42.333,34.09,42.331,34.088,41.847,33.885z"/>
		<path d="M43.035,26.118c-1.922-1.002-3.397-2.652-5.054-4.013c-1.505-1.237-4.298-0.135-3.558,2.071
			c0.817,2.435,2.44,4.396,4.126,6.299c0.615,0.694,1.012,1.791,1.718,2.373c0.331,0.278,0.671,0.545,1.02,0.802
			c0.235,0.099,0.414,0.174,0.561,0.236c1.058,0.455,1.74,0.499,2.882,0.337c1.513-0.215,2.4-1.892,2.474-3.249
			C47.352,28.185,44.621,26.943,43.035,26.118z"/>
	</g>
	<path d="M65.444,8.756c-0.08-0.198-0.134-0.401-0.223-0.602c-0.964-2.17-4.011-1.665-5.106,0c-1.117,1.698-1.524,4.414-1.101,6.376
		c0.371,1.716,1.731,3.247,3.462,3.662c2.36,0.566,4.415-0.561,5.361-2.496c-0.003,0.012-0.006,0.024-0.01,0.036
		c0.373-0.802,0.742-1.601,1.035-2.437C69.722,10.847,67.628,8.9,65.444,8.756z"/>
	<path d="M84.823,2.947c-0.797,2.147-1.21,4.488-1.838,6.694c-0.594,2.087-1.438,4.26-0.356,6.155
		c-0.008,0.096-0.013,0.191-0.021,0.287c-0.118,1.421,1.717,1.921,2.624,1.087c0.04-0.036,0.079-0.074,0.119-0.111
		c2.228-0.403,3.314-2.674,4.334-4.593c1.232-2.324,2.631-4.72,3.442-7.229C94.861-0.111,86.725-2.176,84.823,2.947z"/>
	<path d="M117.371,8.736c-1.28-0.862-3.104-0.735-4.396,0c-1.815,1.032-3.404,2.789-4.833,4.291
		c-1.538,1.617-3.037,3.295-4.326,5.118c-1.924,2.721,1.89,6.534,4.611,4.611c2.278-1.61,4.297-3.548,6.593-5.139
		c0.136-0.094,1.605-0.981,0.965-0.711c1.197-0.504,2.256-1.03,2.948-2.211C120.21,12.514,119.362,10.078,117.371,8.736z"/>
</g>
<g>
</g>
<g>
</g>
<g>
</g>
<g>
</g>
<g>
</g>
<g>
</g>
<g>
</g>
<g>
</g>
<g>
</g>
<g>
</g>
<g>
</g>
<g>
</g>
<g>
</g>
<g>
</g>
<g>
</g>
</svg>
