<?xml version="1.0" encoding="iso-8859-1"?>
<!-- Generator: Adobe Illustrator 19.0.0, SVG Export Plug-In . SVG Version: 6.00 Build 0)  -->
<svg version="1.1" id="Layer_1" xmlns="http://www.w3.org/2000/svg" xmlns:xlink="http://www.w3.org/1999/xlink" x="0px" y="0px"
	 viewBox="0 0 496 496" style="enable-background:new 0 0 496 496;" xml:space="preserve">
<path style="fill:#8EAEBA;" d="M376,472c0,13.6-10.4,24-24,24H144c-13.6,0-24-10.4-24-24V32c0-13.6,10.4-24,24-24h208
	c13.6,0,24,10.4,24,24V472z"/>
<path style="fill:#FFFFFF;" d="M376,464c0,13.6-10.4,24-24,24H144c-13.6,0-24-10.4-24-24V24c0-13.6,10.4-24,24-24h208
	c13.6,0,24,10.4,24,24V464z"/>
<path style="fill:#D7EAF7;" d="M376,464c0,13.6-10.4,24-24,24H144c-13.6,0-24-10.4-24-24V32c0-13.6,10.4-24,24-24h208
	c13.6,0,24,10.4,24,24V464z"/>
<path style="fill:#C1D8E5;" d="M144,8h208c13.6,0,24,8,24,20.8v437.6c0,13.6-10.4,21.6-24,21.6H144"/>
<path style="fill:#A7C4D1;" d="M352,8c13.6,0,24,8,24,20.8v437.6c0,13.6-10.4,21.6-24,21.6"/>
<rect x="120" y="56" style="fill:#094670;" width="256" height="384"/>
<polyline style="fill:#00233F;" points="376,440 376,56 120,56 "/>
<rect x="136" y="56" style="fill:#EA7711;" width="224" height="384"/>
<rect x="136" y="72" style="fill:#FFA515;" width="224" height="368"/>
<polyline style="fill:#ED900A;" points="360,440 360,72 136,72 "/>
<g>
	<circle style="fill:#95AAB5;" cx="207.2" cy="22.4" r="3.2"/>
	<circle style="fill:#95AAB5;" cx="219.2" cy="22.4" r="3.2"/>
	<circle style="fill:#95AAB5;" cx="230.4" cy="22.4" r="3.2"/>
	<circle style="fill:#95AAB5;" cx="242.4" cy="22.4" r="3.2"/>
	<circle style="fill:#95AAB5;" cx="253.6" cy="22.4" r="3.2"/>
	<circle style="fill:#95AAB5;" cx="265.6" cy="22.4" r="3.2"/>
	<circle style="fill:#95AAB5;" cx="276.8" cy="22.4" r="3.2"/>
	<circle style="fill:#95AAB5;" cx="288.8" cy="22.4" r="3.2"/>
	<circle style="fill:#95AAB5;" cx="207.2" cy="32.8" r="3.2"/>
	<circle style="fill:#95AAB5;" cx="219.2" cy="32.8" r="3.2"/>
	<circle style="fill:#95AAB5;" cx="230.4" cy="32.8" r="3.2"/>
	<circle style="fill:#95AAB5;" cx="242.4" cy="32.8" r="3.2"/>
	<circle style="fill:#95AAB5;" cx="253.6" cy="32.8" r="3.2"/>
	<circle style="fill:#95AAB5;" cx="265.6" cy="32.8" r="3.2"/>
	<circle style="fill:#95AAB5;" cx="276.8" cy="32.8" r="3.2"/>
	<circle style="fill:#95AAB5;" cx="288.8" cy="32.8" r="3.2"/>
	<circle style="fill:#95AAB5;" cx="207.2" cy="43.2" r="3.2"/>
	<circle style="fill:#95AAB5;" cx="219.2" cy="43.2" r="3.2"/>
	<circle style="fill:#95AAB5;" cx="230.4" cy="43.2" r="3.2"/>
	<circle style="fill:#95AAB5;" cx="242.4" cy="43.2" r="3.2"/>
	<circle style="fill:#95AAB5;" cx="253.6" cy="43.2" r="3.2"/>
	<circle style="fill:#95AAB5;" cx="265.6" cy="43.2" r="3.2"/>
	<circle style="fill:#95AAB5;" cx="276.8" cy="43.2" r="3.2"/>
	<circle style="fill:#95AAB5;" cx="288.8" cy="43.2" r="3.2"/>
	<circle style="fill:#95AAB5;" cx="207.2" cy="452.8" r="3.2"/>
	<circle style="fill:#95AAB5;" cx="219.2" cy="452.8" r="3.2"/>
	<circle style="fill:#95AAB5;" cx="230.4" cy="452.8" r="3.2"/>
	<circle style="fill:#95AAB5;" cx="242.4" cy="452.8" r="3.2"/>
	<circle style="fill:#95AAB5;" cx="253.6" cy="452.8" r="3.2"/>
	<circle style="fill:#95AAB5;" cx="265.6" cy="452.8" r="3.2"/>
	<circle style="fill:#95AAB5;" cx="276.8" cy="452.8" r="3.2"/>
	<circle style="fill:#95AAB5;" cx="288.8" cy="452.8" r="3.2"/>
	<circle style="fill:#95AAB5;" cx="207.2" cy="462.4" r="3.2"/>
	<circle style="fill:#95AAB5;" cx="219.2" cy="462.4" r="3.2"/>
	<circle style="fill:#95AAB5;" cx="230.4" cy="462.4" r="3.2"/>
	<circle style="fill:#95AAB5;" cx="242.4" cy="462.4" r="3.2"/>
	<circle style="fill:#95AAB5;" cx="253.6" cy="462.4" r="3.2"/>
	<circle style="fill:#95AAB5;" cx="265.6" cy="462.4" r="3.2"/>
	<circle style="fill:#95AAB5;" cx="276.8" cy="462.4" r="3.2"/>
	<circle style="fill:#95AAB5;" cx="288.8" cy="462.4" r="3.2"/>
	<circle style="fill:#95AAB5;" cx="207.2" cy="472.8" r="3.2"/>
	<circle style="fill:#95AAB5;" cx="219.2" cy="472.8" r="3.2"/>
	<circle style="fill:#95AAB5;" cx="230.4" cy="472.8" r="3.2"/>
	<circle style="fill:#95AAB5;" cx="242.4" cy="472.8" r="3.2"/>
	<circle style="fill:#95AAB5;" cx="253.6" cy="472.8" r="3.2"/>
	<circle style="fill:#95AAB5;" cx="265.6" cy="472.8" r="3.2"/>
	<circle style="fill:#95AAB5;" cx="276.8" cy="472.8" r="3.2"/>
	<circle style="fill:#95AAB5;" cx="288.8" cy="472.8" r="3.2"/>
</g>
<path style="fill:#93B5C1;" d="M345.6,28.8c0,6.4-4.8,14.4-11.2,14.4c-6.4,0-11.2-8.8-11.2-14.4s4.8-11.2,11.2-11.2
	C340.8,17.6,345.6,22.4,345.6,28.8z"/>
<path style="fill:#DFF1F7;" d="M323.2,28.8c0-6.4,4.8-13.6,11.2-13.6c6.4,0,11.2,7.2,11.2,13.6"/>
<circle style="fill:#00233F;" cx="334.4" cy="28.8" r="11.2"/>
<circle style="fill:#2E79A3;" cx="334.4" cy="28.8" r="7.2"/>
<path style="fill:#225A7F;" d="M329.6,24c3.2-3.2,8-3.2,10.4,0c3.2,3.2,3.2,8,0,10.4"/>
<g>
	<circle style="fill:#53ACD3;" cx="330.4" cy="28" r="1.6"/>
	<circle style="fill:#53ACD3;" cx="336.8" cy="32.8" r="1.6"/>
</g>
<rect x="136" y="408" style="fill:#ED900A;" width="224" height="32"/>
<path style="fill:#094670;" d="M184,32c0,4.8-3.2,8-6.4,8h-26.4c-4,0-7.2-3.2-7.2-8l0,0c0-4.8,3.2-8,6.4-8h26.4
	C180.8,24,184,27.2,184,32L184,32z"/>
<circle style="fill:#27D68A;" cx="152" cy="29.6" r="4"/>
<path style="fill:#15AF83;" d="M152,25.6c2.4,0,4,1.6,4,4s-1.6,4-4,4"/>
<path style="fill:#CFFFEF;" d="M150.4,28c0,0.8-0.8,0.8-1.6,0.8S148,28,148,27.2s0.8-0.8,0.8-0.8C150.4,27.2,150.4,28,150.4,28z"/>
<g>
</g>
<g>
</g>
<g>
</g>
<g>
</g>
<g>
</g>
<g>
</g>
<g>
</g>
<g>
</g>
<g>
</g>
<g>
</g>
<g>
</g>
<g>
</g>
<g>
</g>
<g>
</g>
<g>
</g>
</svg>
