<?xml version="1.0" encoding="iso-8859-1"?>
<!-- Generator: Adobe Illustrator 16.0.0, SVG Export Plug-In . SVG Version: 6.00 Build 0)  -->
<!DOCTYPE svg PUBLIC "-//W3C//DTD SVG 1.1//EN" "http://www.w3.org/Graphics/SVG/1.1/DTD/svg11.dtd">
<svg version="1.1" id="Capa_1" xmlns="http://www.w3.org/2000/svg" xmlns:xlink="http://www.w3.org/1999/xlink" x="0px" y="0px"
	 width="187.21px" height="187.21px" viewBox="0 0 187.21 187.21" style="enable-background:new 0 0 187.21 187.21;"
	 xml:space="preserve">
<g>
	<path d="M159.201,74.952c-2.015-5.572-6.036-10.57-11.563-13.55c-0.346-0.225-0.695-0.442-1.051-0.654
		c16.222-13.266,3.074-39.838-18.051-35.637c-0.977-6.518-4.302-11.569-8.978-15.258c-9.878-11.232-30.424-13.008-42.697-4.57
		C69.909,8.265,65.083,13.23,64.87,19.902c-5.679-0.941-12.214,1.701-16.236,5.4c-5.745,5.283-7.678,13.535-5.595,20.798
		c-2.687,0.547-4.919,1.835-6.683,3.714c-8.023,4.782-11.622,16.339-10.237,25.796c1.434,9.794,10.117,24.974,21.337,21.908
		c-8.314,7.029,0.463,17.164,11.123,25.083c0.944,0.731,1.932,1.438,2.963,2.115c6.508,4.473,13.152,7.971,16.622,9.33
		c4.066,1.592,8.261,2.701,12.481,3.37c-0.658,7.9-1.67,15.589-3.023,23.541c-1.528,8.978-1.033,19.391,7.436,25.02
		c9.001,5.983,13.567-11.487,14.511-16.503c1.232-6.556,1.056-12.919,0.313-19.539c-0.389-3.476-0.437-8.422-1.562-12.378
		c11.407-1.668,21.881-6.782,29.19-15.149c6.507-5.174,10.952-11.666,11.308-19.262C161.713,97.139,163.693,85.219,159.201,74.952z
		 M139.705,99.639c-0.791,6.163-3.016,11.391-6.228,15.714c-9.952,8.924-23.779,13.779-37.675,14.48
		c-1.48,0.074-3.171,0.02-5.004-0.154c-1.445-0.257-2.881-0.575-4.299-0.955c-8.615-2.31-28.036-10.35-32.786-20.525
		c-0.56-3.736,0.751-7.854,4.781-12.279c1.713-1.881,0.007-4.485-2.364-4.06C44.565,93.93,39.126,81.343,37.073,72.191
		c-1.586-7.072-0.443-12.88,3.206-17.364c2.157-1.097,4.64-1.723,7.224-2.471c1.073-0.311,1.676-1.408,1.687-2.454
		c0.76-0.22,1.379-0.935,1.042-1.802c-1.397-3.59-1.695-7.626-0.959-11.226c0.74-2.129,1.883-4.151,3.449-5.99
		c1.778-2.088,4.073-3.444,6.669-4.189c2.515-0.199,5.44,0.359,8.812,2.048c0.467,0.234,0.983,0.288,1.473,0.217
		c2.742,0.607,4.006-2.996,2.438-4.929c-0.126-0.155-0.267-0.278-0.398-0.424c0.33-3.572,1.43-6.588,3.096-9.099
		c5.234-4.101,14.147-5.288,20.021-5.216c12.549,0.153,22.39,6.008,25.967,17.351c0.062,0.24,0.131,0.473,0.188,0.716
		c0.019,0.079,0.073,0.116,0.098,0.187c0.095,0.341,0.171,0.697,0.255,1.047c-0.171,0.627-0.01,1.301,0.415,1.766
		c0.617,2.876,3.973,3.054,5.814,1.458c14.918-0.112,29.647,18.194,10.279,25.964c-3.173,1.272-3.692,5.892,0,6.966
		c14.568,4.24,22.527,21.724,9.405,30.739c-0.506-0.101-1.078,0.128-1.263,0.713c-0.005,0.016-0.012,0.03-0.017,0.046
		c-0.042,0.024-0.088,0.049-0.131,0.073C143.671,95.27,140.123,96.384,139.705,99.639z"/>
</g>
<g>
</g>
<g>
</g>
<g>
</g>
<g>
</g>
<g>
</g>
<g>
</g>
<g>
</g>
<g>
</g>
<g>
</g>
<g>
</g>
<g>
</g>
<g>
</g>
<g>
</g>
<g>
</g>
<g>
</g>
</svg>
